<svg xmlns="http://www.w3.org/2000/svg" viewBox="0 0 122.084 20.003"><defs></defs><defs><clipPath id="payment-cc-a"><path fill="#254aa5" d="M62.174 161.693l-2.86 7.242-1.157-6.158a1.281 1.281 0 00-1.267-1.084h-4.675l-.065.307a11.419 11.419 0 012.711.905 1.165 1.165 0 01.652.935l2.191 8.491h2.9l4.451-10.64zm4.065 0l-2.273 10.64h2.747l2.272-10.64zm15.751 2.874l.832 4h-2.279zm-.4-2.874a1.252 1.252 0 00-1.169.78l-4.121 9.86h2.883l.574-1.588h3.523l.333 1.588h2.537l-2.217-10.64zm-11.852 3.322c-.019 1.532 1.363 2.387 2.4 2.9 1.07.522 1.429.856 1.425 1.323-.008.714-.854 1.029-1.645 1.041a5.73 5.73 0 01-2.818-.679l-.5 2.331a8.258 8.258 0 003.055.565c2.885 0 4.773-1.427 4.783-3.639.011-2.808-3.877-2.963-3.85-4.218.009-.381.372-.787 1.166-.89a5.162 5.162 0 012.709.476l.483-2.255a7.35 7.35 0 00-2.571-.473c-2.716 0-4.626 1.446-4.641 3.517" data-name="Path 13180" transform="translate(-52.15 -161.499)"></path></clipPath><clipPath id="payment-cc-b"><path fill="none" d="M0 0h25.779v20.003H0z" data-name="Rectangle 677"></path></clipPath><clipPath id="payment-cc-c"><path fill="none" d="M0 0h38.084v13.78H0z" data-name="Rectangle 680"></path></clipPath></defs><g data-name="Group 8407"><g clip-path="url(#payment-cc-a)" data-name="Group 8384" transform="translate(0 5)"><path fill="#254aa5" d="M-3.561 1.314l33.50023-12.36108 7.6216 20.73247L4.06062 22.04647z" data-name="Path 13181"></path></g></g><g data-name="Group 8408"><g clip-path="url(#payment-cc-b)" data-name="Group 8387" transform="translate(46)"><path fill="#231f20" d="M4.691 19.94v-1.327a.788.788 0 00-.731-.84.9.9 0 00-.1 0 .819.819 0 00-.744.376.776.776 0 00-.7-.376.7.7 0 00-.62.314v-.262h-.46v2.115H1.8v-1.163a.5.5 0 01.424-.558.511.511 0 01.094 0c.305 0 .46.2.46.558v1.177h.465v-1.177a.5.5 0 01.518-.562c.314 0 .465.2.465.558v1.177zm6.875-2.115h-.757v-.642h-.465v.642h-.42v.42h.429v.974c0 .491.19.783.735.783a1.082 1.082 0 00.575-.164l-.133-.394a.848.848 0 01-.407.119c-.221 0-.305-.142-.305-.354v-.964h.752zm3.926-.053a.624.624 0 00-.558.31v-.257h-.456v2.115h.46v-1.186c0-.35.15-.544.443-.544a.753.753 0 01.288.053l.142-.443a.983.983 0 00-.328-.058zm-5.935.221a1.584 1.584 0 00-.863-.221c-.536 0-.885.257-.885.677 0 .345.257.558.73.624l.221.031c.252.035.372.1.372.221 0 .164-.168.257-.482.257a1.126 1.126 0 01-.7-.221l-.221.358a1.528 1.528 0 00.916.275c.611 0 .965-.288.965-.691s-.279-.567-.739-.633l-.221-.031c-.2-.027-.358-.066-.358-.208s.15-.248.4-.248a1.366 1.366 0 01.664.181zm12.328-.221a.624.624 0 00-.558.31v-.257h-.456v2.115h.46v-1.186c0-.35.151-.544.443-.544a.752.752 0 01.288.053l.142-.443a.983.983 0 00-.328-.058zm-5.931 1.106a1.069 1.069 0 001.029 1.107h.1a1.106 1.106 0 00.761-.252l-.221-.372a.929.929 0 01-.553.191.679.679 0 010-1.355.929.929 0 01.553.191l.221-.372a1.107 1.107 0 00-.761-.252 1.069 1.069 0 00-1.128 1.001v.1zm4.311 0v-1.053H19.8v.256a.8.8 0 00-.664-.31 1.1065 1.1065 0 000 2.213.8.8 0 00.664-.31v.257h.46zm-1.713 0a.638.638 0 110 .05v-.05M13 17.772a1.107 1.107 0 10.031 2.213 1.286 1.286 0 00.879-.287l-.221-.341a1.009 1.009 0 01-.615.221.587.587 0 01-.633-.518h1.571v-.177a1.006 1.006 0 00-1-1.106zm0 .412a.525.525 0 01.536.513h-1.109a.545.545 0 01.562-.513zm11.531.7v-1.909h-.443v1.106a.8.8 0 00-.664-.31 1.1065 1.1065 0 000 2.213.8.8 0 00.664-.31v.257h.443zm-1.7 0a.636.636 0 110 .05v-.05m-15.541 0v-1.059h-.46v.256a.8.8 0 00-.664-.31 1.1065 1.1065 0 000 2.213.8.8 0 00.664-.31v.257h.46zm-1.713 0a.593.593 0 11-.006.055v-.055z" data-name="Path 13182"></path><path fill="#ff5f00" d="M9.404 1.704h6.971v12.527H9.404z" data-name="Rectangle 676"></path><path fill="#eb001b" d="M9.846 7.968a7.953 7.953 0 013.043-6.265 7.966 7.966 0 100 12.527 7.953 7.953 0 01-3.043-6.262" data-name="Path 13183"></path><path fill="#f79e1b" d="M25.779 7.969a7.966 7.966 0 01-12.89 6.262 7.966 7.966 0 000-12.527 7.966 7.966 0 0112.89 6.262z" data-name="Path 13184"></path></g></g><g data-name="Group 8409"><g clip-path="url(#payment-cc-c)" data-name="Group 8389" transform="translate(84 3)"><path fill="#fff" d="M7.375 13.779V7.815h6.315l.678.883.7-.883H37.99v5.553a2.646 2.646 0 01-1.293.411H24.005l-.764-.94v.94h-2.506v-1.6a2.1 2.1 0 01-1.081.224h-.852v1.381h-3.79l-.677-.9-.687.9z" data-name="Path 13185"></path><path fill="#fff" d="M0 3.32L1.424 0h2.463L4.7 1.86V0h3.057l.481 1.344L8.7 0h13.747v.676A2.965 2.965 0 0124.357 0l4.459.016.794 1.835V0h2.562l.705 1.054V0h2.586v5.964h-2.586L32.2 4.907v1.057h-3.763l-.379-.94h-1.011l-.372.94h-2.553a2.523 2.523 0 01-1.675-.664v.662H18.6l-.764-.94v.94H3.522l-.378-.94H2.135l-.376.94H0z" data-name="Path 13186"></path><path fill="#016fd0" d="M1.928.735L.007 5.201h1.251l.354-.894h2.06l.353.894h1.278L3.384.735zm.711 1.039l.628 1.563H2.009z" data-name="Path 13187"></path><path fill="#016fd0" d="M5.436 5.2V.734l1.777.007L8.247 3.62 9.256.734h1.763V5.2H9.902V1.91L8.718 5.201h-.979L6.552 1.91v3.291z" data-name="Path 13188"></path><path fill="#016fd0" d="M11.781 5.2V.734h3.639v1h-2.51v.764h2.456v.94H12.91v.793h2.51v.97z" data-name="Path 13189"></path><path fill="#016fd0" d="M16.075.735v4.466h1.116V3.614h.47L19 5.201h1.364l-1.469-1.645a1.36 1.36 0 001.225-1.372A1.445 1.445 0 0018.559.735zm1.116 1h1.276a.512.512 0 01.529.47.5.5 0 01-.512.47h-1.293z" data-name="Path 13190"></path><path fill="#016fd0" d="M20.572.735h1.14v4.466h-1.14z" data-name="Rectangle 679"></path><path fill="#016fd0" d="M24.416 5.201h-.246a1.968 1.968 0 01-1.913-2.215A2.046 2.046 0 0124.475.735h1.234v1.058H24.43a1.074 1.074 0 00-1.042 1.2 1.093 1.093 0 001.2 1.228h.294z" data-name="Path 13191"></path><path fill="#016fd0" d="M26.845.735l-1.921 4.466h1.25l.354-.894h2.06l.352.894h1.278L28.299.735zm.711 1.039l.628 1.563h-1.258z" data-name="Path 13192"></path><path fill="#016fd0" d="M30.351 5.2V.734h1.419l1.812 2.806V.734h1.117V5.2h-1.374l-1.858-2.879V5.2z" data-name="Path 13193"></path><path fill="#016fd0" d="M8.14 13.016V8.551h3.643v1H9.268v.764h2.456v.94H9.268v.796h2.515v.97z" data-name="Path 13194"></path><path fill="#016fd0" d="M25.99 13.016V8.551h3.643v1h-2.515v.764h2.444v.94h-2.444v.796h2.515v.97z" data-name="Path 13195"></path><path fill="#016fd0" d="M11.923 13.016l1.774-2.205-1.816-2.261h1.407l1.082 1.4 1.085-1.4h1.351l-1.792 2.233 1.777 2.233h-1.406l-1.05-1.375-1.025 1.375z" data-name="Path 13196"></path><path fill="#016fd0" d="M16.923 8.551v4.466h1.146v-1.41h1.175a1.545 1.545 0 001.748-1.554 1.47 1.47 0 00-1.6-1.5zm1.146 1.01h1.238a.5.5 0 01.551.514.515.515 0 01-.555.514h-1.234z" data-name="Path 13197"></path><path fill="#016fd0" d="M21.478 8.55v4.466h1.116v-1.587h.47l1.339 1.587h1.364l-1.469-1.645a1.36 1.36 0 001.225-1.372 1.445 1.445 0 00-1.561-1.449zm1.116 1h1.276a.513.513 0 01.529.47.5.5 0 01-.512.47h-1.293z" data-name="Path 13198"></path><path fill="#016fd0" d="M30.151 13.016v-.965h2.234c.331 0 .474-.179.474-.375s-.143-.378-.474-.378h-1.01a1.248 1.248 0 01-1.366-1.338c0-.716.448-1.407 1.752-1.407h2.174l-.47 1h-1.88c-.359 0-.47.189-.47.369a.389.389 0 00.411.389h1.058a1.225 1.225 0 011.4 1.282 1.339 1.339 0 01-1.456 1.421z" data-name="Path 13199"></path><path fill="#016fd0" d="M34.246 13.016v-.965h2.234c.331 0 .474-.179.474-.375s-.143-.378-.474-.378h-1.01a1.249 1.249 0 01-1.367-1.338c0-.716.448-1.407 1.752-1.407h2.174l-.47 1h-1.88c-.359 0-.47.189-.47.369a.389.389 0 00.411.389h1.058a1.225 1.225 0 011.4 1.282 1.339 1.339 0 01-1.456 1.421z" data-name="Path 13200"></path></g></g></svg>